# Blender 4.4.1
# www.blender.org
mtllib beam.mtl
o 円柱
v 1.003850 0.491425 -0.031767
v 0.003850 0.491425 -0.031767
v 1.003850 0.481818 0.065778
v 0.003850 0.481817 0.065778
v 1.003850 0.453365 0.159575
v 0.003850 0.453365 0.159575
v 1.003850 0.407160 0.246018
v 0.003850 0.407160 0.246018
v 1.003850 0.344979 0.321787
v 0.003850 0.344979 0.321787
v 1.003850 0.269210 0.383968
v 0.003850 0.269210 0.383968
v 1.003850 0.182767 0.430173
v 0.003850 0.182767 0.430173
v 1.003850 0.088970 0.458626
v 0.003850 0.088970 0.458626
v 1.003850 -0.008574 0.468233
v 0.003850 -0.008574 0.468233
v 1.003850 -0.106120 0.458626
v 0.003850 -0.106120 0.458626
v 1.003850 -0.199916 0.430173
v 0.003850 -0.199916 0.430173
v 1.003850 -0.286360 0.383968
v 0.003850 -0.286360 0.383968
v 1.003850 -0.362128 0.321787
v 0.003850 -0.362128 0.321787
v 1.003850 -0.424309 0.246018
v 0.003850 -0.424309 0.246018
v 1.003850 -0.470514 0.159575
v 0.003850 -0.470514 0.159575
v 1.003850 -0.498967 0.065778
v 0.003850 -0.498967 0.065778
v 1.003850 -0.508575 -0.031767
v 0.003850 -0.508575 -0.031767
v 1.003850 -0.498967 -0.129312
v 0.003850 -0.498967 -0.129312
v 1.003850 -0.470514 -0.223109
v 0.003850 -0.470514 -0.223109
v 1.003850 -0.424309 -0.309552
v 0.003850 -0.424309 -0.309552
v 1.003850 -0.362128 -0.385321
v 0.003850 -0.362128 -0.385321
v 1.003850 -0.286360 -0.447502
v 0.003850 -0.286360 -0.447502
v 1.003850 -0.199916 -0.493707
v 0.003850 -0.199916 -0.493707
v 1.003850 -0.106120 -0.522160
v 0.003850 -0.106120 -0.522160
v 1.003850 -0.008575 -0.531767
v 0.003850 -0.008575 -0.531767
v 1.003850 0.088970 -0.522160
v 0.003850 0.088970 -0.522160
v 1.003850 0.182767 -0.493707
v 0.003850 0.182767 -0.493707
v 1.003850 0.269210 -0.447502
v 0.003850 0.269210 -0.447502
v 1.003850 0.344979 -0.385321
v 0.003850 0.344979 -0.385321
v 1.003850 0.407160 -0.309552
v 0.003850 0.407160 -0.309552
v 1.003850 0.453365 -0.223109
v 0.003850 0.453365 -0.223109
v 1.003850 0.481818 -0.129312
v 0.003850 0.481817 -0.129312
vn -0.0000 0.9952 0.0980
vn -0.0000 0.9569 0.2903
vn -0.0000 0.8819 0.4714
vn -0.0000 0.7730 0.6344
vn -0.0000 0.6344 0.7730
vn -0.0000 0.4714 0.8819
vn -0.0000 0.2903 0.9569
vn -0.0000 0.0980 0.9952
vn -0.0000 -0.0980 0.9952
vn -0.0000 -0.2903 0.9569
vn -0.0000 -0.4714 0.8819
vn -0.0000 -0.6344 0.7730
vn -0.0000 -0.7730 0.6344
vn -0.0000 -0.8819 0.4714
vn -0.0000 -0.9569 0.2903
vn -0.0000 -0.9952 0.0980
vn -0.0000 -0.9952 -0.0980
vn -0.0000 -0.9569 -0.2903
vn -0.0000 -0.8819 -0.4714
vn -0.0000 -0.7730 -0.6344
vn -0.0000 -0.6344 -0.7730
vn -0.0000 -0.4714 -0.8819
vn -0.0000 -0.2903 -0.9569
vn -0.0000 -0.0980 -0.9952
vn -0.0000 0.0980 -0.9952
vn -0.0000 0.2903 -0.9569
vn -0.0000 0.4714 -0.8819
vn -0.0000 0.6344 -0.7730
vn -0.0000 0.7730 -0.6344
vn -0.0000 0.8819 -0.4714
vn -1.0000 -0.0000 -0.0000
vn -0.0000 0.9569 -0.2903
vn -0.0000 0.9952 -0.0980
vn 1.0000 -0.0000 -0.0000
vt 0.225763 0.006374
vt 0.006374 0.037226
vt 0.006374 0.006374
vt 0.225763 0.037226
vt 0.006374 0.068077
vt 0.225763 0.068077
vt 0.006374 0.098929
vt 0.225763 0.098929
vt 0.006374 0.129781
vt 0.225763 0.129781
vt 0.006374 0.160632
vt 0.225763 0.160632
vt 0.006374 0.191484
vt 0.225763 0.191484
vt 0.006374 0.222336
vt 0.225763 0.222336
vt 0.006374 0.253187
vt 0.225763 0.253187
vt 0.006374 0.284039
vt 0.225763 0.284039
vt 0.006374 0.314890
vt 0.225763 0.314890
vt 0.006374 0.345742
vt 0.225763 0.345742
vt 0.006374 0.376594
vt 0.225763 0.376594
vt 0.006374 0.407445
vt 0.225763 0.407445
vt 0.006374 0.438297
vt 0.225763 0.438297
vt 0.006374 0.469148
vt 0.225763 0.469148
vt 0.006374 0.500000
vt 0.225763 0.500000
vt 0.006374 0.530852
vt 0.225763 0.530851
vt 0.006374 0.561703
vt 0.225763 0.561703
vt 0.006374 0.592555
vt 0.225763 0.592555
vt 0.006374 0.623406
vt 0.225763 0.623406
vt 0.006374 0.654258
vt 0.225764 0.654258
vt 0.006374 0.685110
vt 0.225764 0.685110
vt 0.006374 0.715961
vt 0.225764 0.715961
vt 0.006374 0.746813
vt 0.225764 0.746813
vt 0.006374 0.777664
vt 0.225764 0.777664
vt 0.006374 0.808516
vt 0.225764 0.808516
vt 0.006374 0.839368
vt 0.225764 0.839368
vt 0.006374 0.870219
vt 0.225764 0.870219
vt 0.006374 0.901071
vt 0.225764 0.901071
vt 0.006374 0.931922
vt 0.301392 0.230136
vt 0.428174 0.296338
vt 0.369037 0.420194
vt 0.225764 0.931922
vt 0.006374 0.962774
vt 0.225764 0.962774
vt 0.006374 0.993626
vt 0.320177 0.207215
vt 0.432986 0.118122
vt 0.350251 0.009561
vt 0.350251 0.423992
vt 0.330888 0.423992
vt 0.311691 0.420194
vt 0.293398 0.412744
vt 0.276712 0.401929
vt 0.262274 0.388163
vt 0.250639 0.371977
vt 0.242255 0.353992
vt 0.237442 0.334898
vt 0.236387 0.315431
vt 0.239130 0.296338
vt 0.245566 0.278353
vt 0.255446 0.262166
vt 0.268392 0.248401
vt 0.283906 0.237586
vt 0.320177 0.226338
vt 0.377030 0.237586
vt 0.339540 0.226338
vt 0.358737 0.230136
vt 0.393716 0.248401
vt 0.408154 0.262167
vt 0.419789 0.278353
vt 0.432986 0.315431
vt 0.424863 0.371977
vt 0.434041 0.334899
vt 0.431298 0.353992
vt 0.414982 0.388163
vt 0.402036 0.401929
vt 0.386522 0.412744
vt 0.225764 0.993626
vt 0.330888 0.009561
vt 0.311691 0.013359
vt 0.293398 0.020809
vt 0.276712 0.031624
vt 0.262274 0.045390
vt 0.250639 0.061576
vt 0.242255 0.079562
vt 0.237442 0.098655
vt 0.236387 0.118122
vt 0.239130 0.137215
vt 0.245566 0.155200
vt 0.255446 0.171387
vt 0.268392 0.185152
vt 0.283906 0.195967
vt 0.301392 0.203417
vt 0.339540 0.207215
vt 0.358737 0.203417
vt 0.377030 0.195967
vt 0.393716 0.185152
vt 0.408154 0.171387
vt 0.419789 0.155200
vt 0.428174 0.137215
vt 0.434041 0.098655
vt 0.431298 0.079562
vt 0.424863 0.061576
vt 0.414982 0.045390
vt 0.402036 0.031624
vt 0.386522 0.020809
vt 0.369037 0.013359
s 1
usemtl マテリアル
f 2/1/1 3/2/1 1/3/1
f 4/4/2 5/5/2 3/2/2
f 6/6/3 7/7/3 5/5/3
f 8/8/4 9/9/4 7/7/4
f 10/10/5 11/11/5 9/9/5
f 12/12/6 13/13/6 11/11/6
f 14/14/7 15/15/7 13/13/7
f 16/16/8 17/17/8 15/15/8
f 18/18/9 19/19/9 17/17/9
f 20/20/10 21/21/10 19/19/10
f 22/22/11 23/23/11 21/21/11
f 24/24/12 25/25/12 23/23/12
f 26/26/13 27/27/13 25/25/13
f 28/28/14 29/29/14 27/27/14
f 30/30/15 31/31/15 29/29/15
f 32/32/16 33/33/16 31/31/16
f 34/34/17 35/35/17 33/33/17
f 36/36/18 37/37/18 35/35/18
f 38/38/19 39/39/19 37/37/19
f 40/40/20 41/41/20 39/39/20
f 42/42/21 43/43/21 41/41/21
f 44/44/22 45/45/22 43/43/22
f 46/46/23 47/47/23 45/45/23
f 48/48/24 49/49/24 47/47/24
f 50/50/25 51/51/25 49/49/25
f 52/52/26 53/53/26 51/51/26
f 54/54/27 55/55/27 53/53/27
f 56/56/28 57/57/28 55/55/28
f 58/58/29 59/59/29 57/57/29
f 60/60/30 61/61/30 59/59/30
f 38/62/31 22/63/31 6/64/31
f 62/65/32 63/66/32 61/61/32
f 64/67/33 1/68/33 63/66/33
f 31/69/34 47/70/34 63/71/34
f 2/1/1 4/4/1 3/2/1
f 4/4/2 6/6/2 5/5/2
f 6/6/3 8/8/3 7/7/3
f 8/8/4 10/10/4 9/9/4
f 10/10/5 12/12/5 11/11/5
f 12/12/6 14/14/6 13/13/6
f 14/14/7 16/16/7 15/15/7
f 16/16/8 18/18/8 17/17/8
f 18/18/9 20/20/9 19/19/9
f 20/20/10 22/22/10 21/21/10
f 22/22/11 24/24/11 23/23/11
f 24/24/12 26/26/12 25/25/12
f 26/26/13 28/28/13 27/27/13
f 28/28/14 30/30/14 29/29/14
f 30/30/15 32/32/15 31/31/15
f 32/32/16 34/34/16 33/33/16
f 34/34/17 36/36/17 35/35/17
f 36/36/18 38/38/18 37/37/18
f 38/38/19 40/40/19 39/39/19
f 40/40/20 42/42/20 41/41/20
f 42/42/21 44/44/21 43/43/21
f 44/44/22 46/46/22 45/45/22
f 46/46/23 48/48/23 47/47/23
f 48/48/24 50/50/24 49/49/24
f 50/50/25 52/52/25 51/51/25
f 52/52/26 54/54/26 53/53/26
f 54/54/27 56/56/27 55/55/27
f 56/56/28 58/58/28 57/57/28
f 58/58/29 60/60/29 59/59/29
f 60/60/30 62/65/30 61/61/30
f 6/64/31 4/72/31 2/73/31
f 2/73/31 64/74/31 6/64/31
f 64/74/31 62/75/31 6/64/31
f 62/75/31 60/76/31 58/77/31
f 58/77/31 56/78/31 54/79/31
f 54/79/31 52/80/31 50/81/31
f 50/81/31 48/82/31 54/79/31
f 48/82/31 46/83/31 54/79/31
f 46/83/31 44/84/31 42/85/31
f 42/85/31 40/86/31 38/62/31
f 38/62/31 36/87/31 30/88/31
f 36/87/31 34/89/31 30/88/31
f 34/89/31 32/90/31 30/88/31
f 30/88/31 28/91/31 26/92/31
f 26/92/31 24/93/31 22/63/31
f 22/63/31 20/94/31 14/95/31
f 20/94/31 18/96/31 14/95/31
f 18/96/31 16/97/31 14/95/31
f 14/95/31 12/98/31 10/99/31
f 10/99/31 8/100/31 6/64/31
f 62/75/31 58/77/31 6/64/31
f 58/77/31 54/79/31 6/64/31
f 46/83/31 42/85/31 54/79/31
f 42/85/31 38/62/31 54/79/31
f 30/88/31 26/92/31 38/62/31
f 26/92/31 22/63/31 38/62/31
f 14/95/31 10/99/31 22/63/31
f 10/99/31 6/64/31 22/63/31
f 6/64/31 54/79/31 38/62/31
f 62/65/32 64/67/32 63/66/32
f 64/67/33 2/101/33 1/68/33
f 63/71/34 1/102/34 3/103/34
f 3/103/34 5/104/34 7/105/34
f 7/105/34 9/106/34 11/107/34
f 11/107/34 13/108/34 15/109/34
f 15/109/34 17/110/34 19/111/34
f 19/111/34 21/112/34 23/113/34
f 23/113/34 25/114/34 27/115/34
f 27/115/34 29/116/34 31/69/34
f 31/69/34 33/117/34 35/118/34
f 35/118/34 37/119/34 39/120/34
f 39/120/34 41/121/34 43/122/34
f 43/122/34 45/123/34 47/70/34
f 47/70/34 49/124/34 51/125/34
f 51/125/34 53/126/34 55/127/34
f 55/127/34 57/128/34 59/129/34
f 59/129/34 61/130/34 63/71/34
f 63/71/34 3/103/34 15/109/34
f 3/103/34 7/105/34 15/109/34
f 7/105/34 11/107/34 15/109/34
f 15/109/34 19/111/34 31/69/34
f 19/111/34 23/113/34 31/69/34
f 23/113/34 27/115/34 31/69/34
f 31/69/34 35/118/34 47/70/34
f 35/118/34 39/120/34 47/70/34
f 39/120/34 43/122/34 47/70/34
f 47/70/34 51/125/34 63/71/34
f 51/125/34 55/127/34 63/71/34
f 55/127/34 59/129/34 63/71/34
f 63/71/34 15/109/34 31/69/34
